<svg xmlns="http://www.w3.org/2000/svg" data-bbox="23.892 215.108 478.62 81.784" viewBox="24.01 215.11 478.5 81.78"><g fill-rule="evenodd" clip-rule="evenodd"><g fill="#20A345"><path d="M31.577 215.108a7.686 7.686 0 0 1 0 15.37 7.686 7.686 0 0 1 0-15.37" class="st3"/><path d="M60.861 224.187v-4.91H45.775v4.91c0 7.043-5.76 12.804-12.804 12.804h-4.91v15.086h4.91c15.333 0 27.89-12.557 27.89-27.89" class="st3"/></g><g fill="#FFC20F"><path d="M31.577 281.522a7.686 7.686 0 0 1 0 15.37 7.686 7.686 0 0 1 0-15.37" class="st5"/><path d="M45.775 292.723H60.86v-4.91c0-15.345-12.545-27.89-27.89-27.89h-4.91v15.086h4.91c7.043 0 12.804 5.76 12.804 12.804v4.91z" class="st5"/></g><g fill="#F05922"><path d="M97.99 281.522a7.686 7.686 0 0 1 0 15.37 7.686 7.686 0 0 1-7.684-7.685c.012-4.243 3.441-7.685 7.685-7.685" class="st6"/><path d="M83.793 287.813c0-7.043 5.76-12.804 12.804-12.804h4.91v-15.086h-4.91c-15.345 0-27.89 12.545-27.89 27.89v4.91h15.086v-4.91z" class="st6"/></g><g fill="#0072AE"><path d="M97.99 215.108a7.686 7.686 0 0 1 0 15.37 7.686 7.686 0 0 1-7.684-7.685c.012-4.243 3.441-7.685 7.685-7.685" class="st4"/><path d="M96.597 236.991c-7.044 0-12.804-5.76-12.804-12.804v-4.91H68.707v4.91c0 15.333 12.545 27.89 27.89 27.89h4.91v-15.086h-4.91z" class="st4"/></g></g><path fill="#fff" d="M135.643 227.963q6.504 0 10.502 3.903 4.01 3.902 4.01 11.586v20.027h-10.149v-18.47q0-4.16-1.83-6.219-1.815-2.046-5.257-2.046-3.848 0-6.124 2.371-2.277 2.385-2.277 7.06v17.304h-10.136v-48.267h10.136v16.911q2.02-2.005 4.878-3.09 2.873-1.07 6.247-1.07Zm36.434 0q8.13 0 12.494 3.876 4.35 3.862 4.35 11.667v19.973h-9.486v-4.363q-2.872 4.878-10.678 4.878-4.024 0-6.992-1.355-2.954-1.369-4.512-3.78-1.558-2.4-1.558-5.461 0-4.879 3.672-7.67 3.672-2.805 11.342-2.805h8.076q0-3.32-2.02-5.108-2.018-1.79-6.056-1.79-2.792 0-5.488.882-2.697.88-4.594 2.371l-3.631-7.087q2.859-2.019 6.856-3.116 3.998-1.112 8.225-1.112Zm-.772 29.202q2.602 0 4.607-1.193 2.02-1.206 2.873-3.55v-3.577h-6.965q-6.247 0-6.247 4.092 0 1.951 1.531 3.09 1.532 1.138 4.201 1.138Zm49.765-28.673h9.756l-15.813 37.128q-2.398 6.057-5.948 8.523-3.537 2.48-8.55 2.48-2.738 0-5.394-.854-2.67-.84-4.363-2.344l3.713-7.209q1.165 1.03 2.696 1.626 1.531.583 3.022.583 2.087 0 3.388-1.016 1.3-1.003 2.33-3.347l.136-.326-15.15-35.244h10.461l9.824 23.74 9.892-23.74Zm25.502-.529q8.13 0 12.493 3.876 4.35 3.862 4.35 11.667v19.973h-9.485v-4.363q-2.873 4.878-10.678 4.878-4.024 0-6.992-1.355-2.954-1.369-4.512-3.78-1.558-2.4-1.558-5.461 0-4.879 3.672-7.67 3.672-2.805 11.341-2.805h8.076q0-3.32-2.019-5.108-2.019-1.79-6.057-1.79-2.791 0-5.487.882-2.697.88-4.594 2.371l-3.632-7.087q2.86-2.019 6.857-3.116 3.997-1.112 8.225-1.112Zm-.772 29.202q2.601 0 4.607-1.193 2.019-1.206 2.872-3.55v-3.577h-6.964q-6.247 0-6.247 4.092 0 1.951 1.531 3.09 1.531 1.138 4.2 1.138Zm45.28-2.534 2.723 7.154q-1.49 1.111-3.672 1.667-2.181.542-4.58.542-6.247 0-9.661-3.184-3.415-3.185-3.415-9.364V237.07h-5.407v-7.805h5.407v-8.523h10.15v8.523h8.712v7.805h-8.713v14.242q0 2.222 1.138 3.414 1.139 1.206 3.212 1.206 2.412 0 4.106-1.3Zm51.911-26.668q6.572 0 10.434 3.876 3.875 3.862 3.875 11.613v20.027h-10.149v-18.47q0-4.16-1.72-6.219-1.722-2.046-4.92-2.046-3.577 0-5.65 2.317-2.087 2.304-2.087 6.857v17.561h-10.149v-18.47q0-8.265-6.626-8.265-3.51 0-5.596 2.317-2.087 2.304-2.087 6.857v17.561H298.18v-34.987h9.689v4.024q1.95-2.208 4.783-3.374 2.818-1.179 6.206-1.179 3.713 0 6.694 1.464 2.995 1.463 4.824 4.268 2.14-2.737 5.42-4.228 3.293-1.504 7.195-1.504Zm39.093 36.03q-5.528 0-9.919-2.303t-6.856-6.409q-2.466-4.092-2.466-9.296 0-5.203 2.466-9.309 2.466-4.092 6.856-6.395 4.39-2.318 9.92-2.318t9.89 2.318q4.364 2.303 6.83 6.395 2.467 4.106 2.467 9.31 0 5.203-2.467 9.295-2.466 4.106-6.83 6.41-4.362 2.303-9.89 2.303Zm0-8.319q3.903 0 6.41-2.629 2.506-2.642 2.506-7.06 0-4.43-2.507-7.06t-6.409-2.628q-3.902 0-6.436 2.629t-2.534 7.06q0 4.417 2.534 7.06 2.534 2.628 6.436 2.628Zm49.703-27.182h10.15v34.987h-9.622v-4.16q-2.019 2.276-4.81 3.482-2.805 1.193-6.057 1.193-6.897 0-10.922-3.957-4.038-3.97-4.038-11.775v-19.77h10.15v18.266q0 8.455 7.087 8.455 3.645 0 5.853-2.371 2.209-2.371 2.209-7.06v-17.29Zm18.233 34.987v-48.267h10.136v48.267H450.02Zm52.492-17.372q0 .204-.19 2.738h-26.477q.718 3.252 3.387 5.135 2.67 1.884 6.627 1.884 2.737 0 4.85-.813t3.93-2.561l5.407 5.853q-4.946 5.65-14.445 5.65-5.921 0-10.474-2.303t-7.02-6.409q-2.466-4.092-2.466-9.296 0-5.135 2.44-9.268t6.693-6.436q4.255-2.318 9.526-2.318 5.136 0 9.31 2.21 4.16 2.221 6.53 6.34 2.372 4.134 2.372 9.594Zm-18.144-10.46q-3.442 0-5.786 1.95-2.344 1.952-2.86 5.326h17.237q-.529-3.32-2.873-5.298-2.33-1.979-5.718-1.979Z" font-family="Montserrat" font-size="48" font-weight="700" letter-spacing="-1"/><path fill="#fff" d="M125.422 290.03q.593 0 1.093-.06.495-.055.935-.166.444-.116.832-.274.389-.158.778-.362v-3.237h-2.276q-.192 0-.312-.115-.115-.111-.115-.278v-1.127h4.509v5.636q-.555.401-1.153.7-.602.295-1.281.496-.683.2-1.46.299-.782.094-1.691.094-1.602 0-2.934-.547t-2.293-1.537q-.965-.99-1.503-2.374-.538-1.384-.538-3.04 0-1.683.53-3.066.525-1.384 1.503-2.374.982-.987 2.37-1.529 1.387-.546 3.108-.546.871 0 1.618.128.752.128 1.392.371.64.24 1.183.585.542.342 1.012.773l-.564.9q-.17.278-.448.278-.166 0-.359-.115-.256-.14-.576-.346-.316-.205-.773-.397-.457-.188-1.076-.32t-1.469-.132q-1.242 0-2.246.401-1.003.406-1.712 1.161-.704.752-1.084 1.824-.38 1.071-.38 2.404 0 1.392.397 2.485.392 1.088 1.11 1.849.717.755 1.7 1.157.986.401 2.173.401Zm15.833-5.196v6.64h-.811q-.265 0-.427-.082-.167-.081-.218-.35l-.205-.96q-.41.366-.798.657-.389.294-.82.495-.431.197-.918.299-.487.103-1.08.103-.607 0-1.132-.167-.53-.17-.918-.508-.389-.337-.62-.854-.23-.521-.23-1.226 0-.614.338-1.182.337-.572 1.093-1.012.751-.44 1.972-.722 1.217-.282 2.98-.324v-.807q0-1.209-.516-1.832-.516-.62-1.533-.62-.666 0-1.123.171-.457.167-.79.38-.333.21-.572.376-.239.171-.478.171-.184 0-.32-.098-.141-.098-.222-.24l-.33-.584q.863-.829 1.858-1.239.995-.41 2.204-.41.87 0 1.545.287.68.286 1.14.798.461.512.696 1.238.235.73.235 1.602Zm-4.735 5.52q.482 0 .884-.093.397-.099.751-.278.355-.18.675-.435.324-.257.632-.585v-2.161q-1.26.038-2.144.196-.88.163-1.434.419-.551.256-.803.602-.252.35-.252.781 0 .41.132.705.137.299.359.487.226.192.534.277.307.086.666.086Zm7.705-13.975h1.828v15.094h-1.828V276.38Zm9.154 4.548q.93 0 1.72.316.79.311 1.363.9.576.59.897 1.457.324.862.324 1.972 0 .427-.094.572-.09.146-.346.146h-6.908q.021.982.264 1.708.248.73.68 1.216.43.487 1.024.726.594.244 1.332.244.688 0 1.183-.162.495-.158.854-.342.359-.184.602-.342.24-.162.414-.162.227 0 .35.175l.513.666q-.342.41-.811.713-.47.303-1.008.496-.538.196-1.115.294-.572.098-1.135.098-1.076 0-1.986-.367-.905-.363-1.567-1.063-.662-.705-1.029-1.738-.367-1.033-.367-2.378 0-1.085.333-2.028.333-.944.956-1.636.624-.691 1.529-1.084.9-.397 2.028-.397Zm.039 1.345q-1.32 0-2.08.764-.756.76-.944 2.114h5.65q0-.637-.176-1.162-.175-.53-.512-.914t-.824-.593q-.487-.21-1.114-.21Zm8.416 9.201h-1.827v-10.38h1.046q.299 0 .41.111.115.115.154.389l.123 1.622q.534-1.089 1.316-1.7.785-.605 1.84-.605.431 0 .781.093.346.099.645.274l-.235 1.362q-.072.256-.32.256-.141 0-.44-.098-.299-.094-.828-.094-.957 0-1.597.55-.64.556-1.068 1.61v6.61Zm6.637-10.38h1.828v10.38h-1.828v-10.38Zm2.238-3.258q0 .265-.111.496-.107.23-.286.41-.18.179-.414.281-.235.103-.504.103-.265 0-.496-.103-.23-.102-.41-.282-.179-.179-.281-.41-.103-.23-.103-.495 0-.269.103-.508.102-.243.282-.423.179-.179.41-.281.23-.103.495-.103.269 0 .504.103.234.102.414.281.18.18.286.423.11.24.11.508Zm6.916 3.092q.931 0 1.721.316.79.311 1.362.9.577.59.897 1.457.324.862.324 1.972 0 .427-.094.572-.09.146-.345.146h-6.91q.022.982.266 1.708.247.73.678 1.216.432.487 1.025.726.594.244 1.332.244.688 0 1.183-.162.496-.158.854-.342.359-.184.602-.342.24-.162.414-.162.227 0 .35.175l.513.666q-.342.41-.811.713-.47.303-1.008.496-.538.196-1.114.294-.573.098-1.136.098-1.076 0-1.986-.367-.905-.363-1.567-1.063-.662-.705-1.029-1.738-.367-1.033-.367-2.378 0-1.085.333-2.028.333-.944.956-1.636.624-.691 1.53-1.084.9-.397 2.027-.397Zm.039 1.345q-1.32 0-2.08.764-.756.76-.943 2.114h5.649q0-.637-.175-1.162-.175-.53-.513-.914-.337-.384-.824-.593-.487-.21-1.114-.21Z" font-family="Lato" font-size="48" font-weight="400"/></svg>